<?xml version="1.0" encoding="UTF-8"?>
<!DOCTYPE svg PUBLIC "-//W3C//DTD SVG 1.1//EN" "http://www.w3.org/Graphics/SVG/1.1/DTD/svg11.dtd">
<!-- Creator: CorelDRAW 2021.5 -->
<svg xmlns="http://www.w3.org/2000/svg" xml:space="preserve" width="125.615mm" height="19.2043mm" version="1.1" style="shape-rendering:geometricPrecision; text-rendering:geometricPrecision; image-rendering:optimizeQuality; fill-rule:evenodd; clip-rule:evenodd"
viewBox="0 0 12557.52 1919.82"
 xmlns:xlink="http://www.w3.org/1999/xlink"
 xmlns:xodm="http://www.corel.com/coreldraw/odm/2003">
 <defs>
  <style type="text/css">
   <![CDATA[
    .fil0 {fill:#114954;fill-rule:nonzero}
   ]]>
  </style>
 </defs>
 <g id="Layer_x0020_1">
  <metadata id="CorelCorpID_0Corel-Layer"/>
  <g id="_2715082618768">
   <path class="fil0" d="M5744.68 433.13l0 236.13 -423.01 0 0 1221.79 -248.45 0 0 -1221.79 -423.01 0 0 -236.13 1094.48 0zm1289.06 1227.95l0 229.98 -1024.67 0 0 -1457.92 1024.67 0 0 229.98 -776.2 0 0 373.72 741.27 0 0 230 -741.27 0 0 394.25 776.2 0zm278.75 -501.05c0,-223.14 68.12,-405.2 204.31,-546.21 136.23,-141 311.11,-211.5 524.66,-211.5 182.07,0 336.76,50.64 464.06,151.96 127.32,101.3 206.03,238.18 236.15,410.67l-264.89 0c-24.64,-101.29 -75.64,-180.69 -152.98,-238.18 -77.35,-57.5 -171.47,-86.24 -282.35,-86.24 -145.1,0 -259.09,46.89 -341.89,140.66 -82.82,93.76 -124.24,220.07 -124.24,378.85 0,158.8 41.42,285.43 124.24,379.9 82.8,94.46 196.79,141.68 341.89,141.68 110.88,0 205,-28.76 282.35,-86.25 77.35,-57.48 128.34,-136.89 152.98,-238.2l264.89 0c-30.12,172.49 -108.84,309.4 -236.15,410.7 -127.3,101.3 -281.99,151.96 -464.06,151.96 -213.55,0 -388.44,-70.51 -524.66,-211.51 -136.2,-141 -204.31,-323.76 -204.31,-548.27zm2946.19 -726.9l0 1457.92 -248.46 0 0 -624.23 -692 0 0 624.23 -248.47 0 0 -1457.92 248.47 0 0 603.7 692 0 0 -603.7 248.46 0zm670.98 0l0 1457.92 -248.47 0 0 -1457.92 248.47 0zm666.86 411.71l0 1046.22 -244.35 0 0 -1457.92 248.81 0 712.2 1054.77 0 -1054.77 244.35 0 0 1457.92 -254.62 0 -706.39 -1046.22z"/>
   <g>
    <path class="fil0" d="M79.74 433.13l1379.12 0 0 1458.86 -1458.86 0 0 -1458.86 79.74 0zm1219.63 159.49l-1139.89 0 0 1139.89 1139.89 0 0 -1139.89z"/>
    <path class="fil0" d="M1812.21 433.13l1379.12 0 0 1458.86 -1458.86 0 0 -1458.86 79.74 0zm1219.63 159.49l-1139.89 0 0 1139.89 1139.89 0 0 -1139.89z"/>
    <path class="fil0" d="M945.99 0l1379.1 0 0 1458.86 -1458.84 0 0 -1458.86 79.74 0zm1219.61 159.49l-1139.87 0 0 1139.89 1139.87 0 0 -1139.89z"/>
   </g>
  </g>
 </g>
</svg>
