<?xml version="1.0" encoding="UTF-8"?>
<!DOCTYPE svg PUBLIC "-//W3C//DTD SVG 1.1//EN" "http://www.w3.org/Graphics/SVG/1.1/DTD/svg11.dtd">
<!-- Creator: CorelDRAW 2021.5 -->
<svg xmlns="http://www.w3.org/2000/svg" xml:space="preserve" width="106.646mm" height="63.2255mm" version="1.1" style="shape-rendering:geometricPrecision; text-rendering:geometricPrecision; image-rendering:optimizeQuality; fill-rule:evenodd; clip-rule:evenodd"
viewBox="0 0 10660.62 6320.19"
 xmlns:xlink="http://www.w3.org/1999/xlink"
 xmlns:xodm="http://www.corel.com/coreldraw/odm/2003">
 <defs>
  <style type="text/css">
   <![CDATA[
    .fil0 {fill:#114954;fill-rule:nonzero}
   ]]>
  </style>
 </defs>
 <g id="Layer_x0020_1">
  <metadata id="CorelCorpID_0Corel-Layer"/>
  <g id="_2715083863968">
   <path class="fil0" d="M266.38 1446.87l4606.94 0 0 4873.32 -4873.32 0 0 -4873.32 266.38 0zm4074.18 532.76l-3807.79 0 0 3807.79 3807.79 0 0 -3807.79z"/>
   <path class="fil0" d="M6053.69 1446.87l4606.94 0 0 4873.32 -4873.32 0 0 -4873.32 266.38 0zm4074.17 532.76l-3807.79 0 0 3807.79 3807.79 0 0 -3807.79z"/>
   <path class="fil0" d="M3160.07 0l4606.88 0 0 4873.32 -4873.27 0 0 -4873.32 266.39 0zm4074.11 532.76l-3807.73 0 0 3807.79 3807.73 0 0 -3807.79z"/>
  </g>
 </g>
</svg>
